<svg width="32" height="32" viewBox="0 0 32 32" fill="none" xmlns="http://www.w3.org/2000/svg">
<path d="M24.1437 9H4.85625C3.27879 9 2 10.2788 2 11.8562V20.1437C2 21.7212 3.27879 23 4.85625 23H24.1437C25.7212 23 27 21.7212 27 20.1437V11.8562C27 10.2788 25.7212 9 24.1437 9Z" stroke="currentColor" stroke-width="2" stroke-miterlimit="10" stroke-linecap="square"/>
<path d="M14.75 12.4331H5.60562C5.46755 12.4331 5.35562 12.545 5.35562 12.6831V19.3162C5.35562 19.4543 5.46755 19.5662 5.60562 19.5662H14.75C14.8881 19.5662 15 19.4543 15 19.3162V12.6831C15 12.545 14.8881 12.4331 14.75 12.4331Z" fill="currentColor" stroke="currentColor" stroke-width="2" stroke-miterlimit="10" stroke-linecap="square"/>
<path d="M30 13.6669V18.3331" stroke="currentColor" stroke-width="2" stroke-miterlimit="10" stroke-linecap="round"/>
</svg>
