<svg width="32" height="32" viewBox="0 0 32 32" fill="none" xmlns="http://www.w3.org/2000/svg">
<path d="M24.1437 9H4.85625C3.27879 9 2 10.2788 2 11.8562V20.1437C2 21.7212 3.27879 23 4.85625 23H24.1437C25.7212 23 27 21.7212 27 20.1437V11.8562C27 10.2788 25.7212 9 24.1437 9Z" stroke="currentColor" stroke-width="2" stroke-miterlimit="10" stroke-linecap="square"/>
<path d="M9.89631 12.44H6.10369C6.04642 12.44 6 12.552 6 12.6902V19.3298C6 19.468 6.04642 19.58 6.10369 19.58H9.89631C9.95358 19.58 10 19.468 10 19.3298V12.6902C10 12.552 9.95358 12.44 9.89631 12.44Z" fill="currentColor" stroke="currentColor" stroke-width="2" stroke-miterlimit="10" stroke-linecap="square"/>
<path d="M30 13.6669V18.3331" stroke="currentColor" stroke-width="2" stroke-miterlimit="10" stroke-linecap="round"/>
</svg>
