<svg width="32" height="32" viewBox="0 0 32 32" fill="none" xmlns="http://www.w3.org/2000/svg">
<path d="M9.89648 11.4404C10.2611 11.4405 10.5169 11.6235 10.6514 11.7607C10.7821 11.8944 10.8544 12.0364 10.8936 12.1309C10.9737 12.3244 11 12.5231 11 12.6904V13.291L8.98633 15.9316L8.95996 15.9668L8.93652 16.0029C8.8937 16.0685 8.85584 16.1378 8.82324 16.209C8.77485 16.3145 8.73963 16.4263 8.7168 16.54H8.71582C8.71572 16.5412 8.71604 16.5428 8.71582 16.5439C8.71536 16.5458 8.71423 16.5479 8.71387 16.5498H8.71484C8.69149 16.6694 8.68415 16.7914 8.69043 16.9131L8.6875 16.9141C8.68794 16.9228 8.68987 16.9317 8.69043 16.9404C8.69058 16.9432 8.69022 16.9464 8.69043 16.9492L8.69141 16.9482C8.70621 17.1615 8.76465 17.3702 8.86621 17.5586C8.97332 17.7571 9.1241 17.929 9.30664 18.0615L9.32812 18.0771L9.35059 18.0918C9.40294 18.1264 9.45743 18.1577 9.51367 18.1855L9.52246 18.1895C9.72215 18.2862 9.94127 18.336 10.1631 18.3359V18.3369H11V19.3301C11 19.4974 10.9737 19.6961 10.8936 19.8896C10.8543 19.9842 10.7823 20.127 10.6514 20.2607C10.5169 20.398 10.2609 20.58 9.89648 20.5801H6.10352C5.73908 20.58 5.48313 20.398 5.34863 20.2607C5.21768 20.127 5.14567 19.9842 5.10645 19.8896C5.04634 19.7445 5.01604 19.5964 5.00488 19.4609L5 19.3301V12.6904C5.00003 12.5231 5.02632 12.3244 5.10645 12.1309C5.14559 12.0364 5.21786 11.8944 5.34863 11.7607C5.48307 11.6235 5.73889 11.4405 6.10352 11.4404H9.89648ZM10.0117 17.0898C10.0226 17.097 10.0343 17.1036 10.0459 17.1094C10.0521 17.1124 10.059 17.1137 10.0654 17.1162C10.0588 17.1136 10.0514 17.1125 10.0449 17.1094C10.0336 17.1037 10.0223 17.0978 10.0117 17.0908L9.96191 17.0439C9.97679 17.0609 9.99333 17.0765 10.0117 17.0898Z" fill="currentColor"/>
<path d="M14.4053 8.83203L13.5869 9.90527L13.5137 10H4.85645C3.83127 10 3 10.8313 3 11.8564V20.1436C3 21.1687 3.83127 22 4.85645 22H11.4053L10.9951 23.4639L10.9629 23.582L10.9541 23.7041C10.9514 23.7436 10.9536 23.7836 10.9541 23.8232H10.9512V23.876L10.9541 23.9199L10.9609 23.9873C10.9614 23.9914 10.9614 23.9958 10.9619 24H4.85645C2.7267 24 1 22.2733 1 20.1436V11.8564C1 9.7267 2.7267 8 4.85645 8H15.0391L14.4053 8.83203ZM24.1436 8C26.2733 8 28 9.7267 28 11.8564V20.1436C28 22.2733 26.2733 24 24.1436 24H13.8438L14.8164 22.7305L14.8174 22.7275L15.3711 22H24.1436C25.1687 22 26 21.1687 26 20.1436V11.8564C26 10.8313 25.1687 10 24.1436 10H17.4775L17.8916 8.52734L17.9092 8.4668L17.9189 8.40527C17.9315 8.33175 17.9386 8.25709 17.9395 8.18262V8.1582C17.9395 8.15195 17.9388 8.12251 17.9365 8.08301V8H24.1436ZM12.209 23.9424C12.2165 23.9479 12.2249 23.9531 12.2334 23.957L12.209 23.9434L12.2031 23.9375C12.2054 23.9388 12.2072 23.9405 12.209 23.9424ZM12.1553 23.8555C12.1549 23.8583 12.1549 23.8614 12.1553 23.8643C12.1578 23.874 12.1615 23.8836 12.166 23.8926C12.1709 23.9006 12.1759 23.9086 12.1816 23.916L12.1875 23.9229L12.1816 23.917C12.1758 23.9094 12.17 23.9008 12.165 23.8926C12.1607 23.8839 12.1568 23.8746 12.1543 23.8652V23.8564L12.1514 23.832C12.152 23.84 12.1534 23.8478 12.1553 23.8555ZM16.5078 8.05664C16.4995 8.06417 16.4918 8.07285 16.4854 8.08203L15.3604 9.55957L15.0244 10H15.0234L15.3594 9.55957L16.4844 8.08301L16.5068 8.05762L16.5137 8.05078L16.5215 8.04492L16.5078 8.05664ZM17.7031 8.83887L17.7012 8.84082C17.703 8.83836 17.7051 8.83418 17.708 8.83008C17.7059 8.83313 17.7047 8.83676 17.7031 8.83887ZM17.8281 8.625C17.8266 8.62818 17.8237 8.63162 17.8223 8.63477C17.8385 8.60003 17.8519 8.56083 17.8662 8.51953C17.8698 8.5092 17.8755 8.49899 17.8789 8.48828C17.8644 8.53447 17.8482 8.58071 17.8281 8.625ZM17.9297 8.24707C17.9289 8.25513 17.9267 8.26345 17.9258 8.27148C17.9286 8.2483 17.9293 8.22524 17.9307 8.20312C17.9298 8.21717 17.9311 8.23249 17.9297 8.24707Z" fill="currentColor"/>
<path d="M17.2544 17.5556L18.9463 15.3375C18.9701 15.3013 18.9865 15.2607 18.9944 15.2181C18.997 15.2045 18.9986 15.1907 18.9994 15.1769C19.0012 15.1499 18.9995 15.1228 18.9944 15.0962C18.9871 15.0575 18.9727 15.0204 18.9519 14.9869C18.9382 14.9651 18.9219 14.9451 18.9031 14.9275C18.8938 14.9187 18.8838 14.9108 18.8731 14.9037C18.8519 14.8888 18.8285 14.8772 18.8038 14.8694C18.7773 14.861 18.7497 14.8568 18.7219 14.8569H14.8706L15.6281 12.1562L15.83 11.4375L16.2181 10.0525L16.25 9.9375L16.7369 8.2025C16.7388 8.19114 16.7399 8.17964 16.74 8.16812V8.15812C16.74 8.155 16.74 8.14187 16.7369 8.13437C16.7338 8.12687 16.7369 8.12874 16.7369 8.12562C16.7344 8.11588 16.7308 8.10645 16.7263 8.0975C16.7213 8.08906 16.7159 8.08092 16.71 8.07312L16.7044 8.06687C16.6994 8.06179 16.6942 8.05699 16.6888 8.05249L16.6825 8.04749C16.6748 8.04188 16.6666 8.03687 16.6581 8.0325C16.6499 8.02866 16.6413 8.02573 16.6325 8.02375H16.5956C16.5863 8.02283 16.5769 8.02283 16.5675 8.02375C16.5584 8.02588 16.5496 8.02903 16.5413 8.03312L16.5331 8.0375L16.5144 8.05062L16.5075 8.05687C16.4991 8.06453 16.4915 8.07313 16.485 8.0825L15.36 9.55937L14.5388 10.6356L13.9231 11.4375L9.94125 16.6594C9.93083 16.6753 9.92164 16.692 9.91375 16.7094C9.90377 16.7311 9.89643 16.754 9.89188 16.7775C9.88651 16.804 9.88483 16.8311 9.88688 16.8581C9.88897 16.9037 9.9013 16.9482 9.92294 16.9883C9.94457 17.0285 9.97498 17.0632 10.0119 17.09C10.0227 17.0971 10.034 17.1036 10.0456 17.1094C10.0824 17.1272 10.1228 17.1364 10.1638 17.1362H14.015L12.1513 23.7875C12.1504 23.7991 12.1504 23.8108 12.1513 23.8225V23.8319C12.1518 23.8399 12.1531 23.8478 12.155 23.8556C12.1547 23.8585 12.1547 23.8615 12.155 23.8644C12.1575 23.8741 12.1611 23.8835 12.1656 23.8925C12.1706 23.9007 12.176 23.9086 12.1819 23.9162L12.1875 23.9225L12.2031 23.9375C12.2055 23.9388 12.2076 23.9405 12.2094 23.9425C12.217 23.9481 12.2252 23.9529 12.2338 23.9569C12.2421 23.9604 12.2506 23.9633 12.2594 23.9656H12.2675C12.2744 23.9662 12.2813 23.9662 12.2881 23.9656H12.2963C12.3057 23.9653 12.3152 23.964 12.3244 23.9619C12.3333 23.9595 12.3419 23.9561 12.35 23.9519L12.3581 23.9475L12.3769 23.9344L12.3838 23.9287C12.3922 23.9211 12.3998 23.9125 12.4063 23.9031L13.8638 22L14.9594 20.5625L17.2544 17.5556Z" fill="currentColor"/>
<path d="M29.9375 13.6669V18.3331" stroke="currentColor" stroke-width="2" stroke-miterlimit="10" stroke-linecap="round"/>
</svg>
