<svg width="32" height="32" viewBox="0 0 32 32" fill="none" xmlns="http://www.w3.org/2000/svg">
<path d="M3 20.1437V11.8562C3.00066 11.3641 3.19644 10.8924 3.54441 10.5444C3.89238 10.1964 4.36414 10.0007 4.85625 10H13.4462L14.9712 8H4.85625C3.83386 8.00116 2.85368 8.40781 2.13075 9.13075C1.40781 9.85369 1.00116 10.8339 1 11.8562V20.1437C1.00116 21.1661 1.40781 22.1463 2.13075 22.8693C2.85368 23.5922 3.83386 23.9988 4.85625 24H10.9094C10.8899 23.8476 10.8954 23.6931 10.9256 23.5425L10.935 23.4956L10.9481 23.45L11.3544 22H4.85625C4.36414 21.9993 3.89238 21.8036 3.54441 21.4556C3.19644 21.1076 3.00066 20.6359 3 20.1437ZM24.1437 8H17.9788C17.9971 8.14994 17.9914 8.30185 17.9619 8.45L17.9525 8.49625L17.9394 8.54187L17.5306 10H24.1437C24.6359 10.0007 25.1076 10.1964 25.4556 10.5444C25.8036 10.8924 25.9993 11.3641 26 11.8562V20.1437C25.9993 20.6359 25.8036 21.1076 25.4556 21.4556C25.1076 21.8036 24.6359 21.9993 24.1437 22H15.4375L13.9113 24H24.1437C25.1661 23.9988 26.1463 23.5922 26.8693 22.8693C27.5922 22.1463 27.9988 21.1661 28 20.1437V11.8562C27.9988 10.8339 27.5922 9.85369 26.8693 9.13075C26.1463 8.40781 25.1661 8.00116 24.1437 8Z" fill="currentColor"/>
<path d="M10.1656 18.385C9.88833 18.3851 9.61629 18.3094 9.37883 18.1662C9.14136 18.0231 8.94749 17.8178 8.81812 17.5725C8.68429 17.3209 8.62181 17.0375 8.63745 16.7529C8.6531 16.4684 8.74626 16.1935 8.90687 15.9581L8.92625 15.9294L8.94687 15.9019L12.3512 11.4375H5.60562C5.2741 11.4375 4.95616 11.5692 4.72174 11.8036C4.48732 12.038 4.35562 12.356 4.35562 12.6875V19.3125C4.35562 19.644 4.48732 19.962 4.72174 20.1964C4.95616 20.4308 5.2741 20.5625 5.60562 20.5625H11.7569L12.3681 18.3838L10.1656 18.385Z" fill="currentColor"/>
<path d="M17.2544 17.5556L18.9462 15.3375C18.9701 15.3013 18.9864 15.2607 18.9944 15.2181C18.9969 15.2045 18.9986 15.1907 18.9994 15.1769C19.0012 15.1499 18.9995 15.1228 18.9944 15.0962C18.9871 15.0575 18.9727 15.0204 18.9519 14.9869C18.9382 14.9651 18.9218 14.9451 18.9031 14.9275C18.8938 14.9187 18.8838 14.9108 18.8731 14.9037C18.8519 14.8888 18.8285 14.8772 18.8037 14.8694C18.7773 14.861 18.7496 14.8568 18.7219 14.8569H14.8706L15.6281 12.1562L15.83 11.4375L16.2181 10.0525L16.25 9.9375L16.7369 8.2025C16.7388 8.19114 16.7399 8.17965 16.74 8.16812V8.15812C16.74 8.155 16.74 8.14187 16.7369 8.13437C16.7337 8.12687 16.7369 8.12875 16.7369 8.12562C16.7344 8.11589 16.7308 8.10646 16.7262 8.0975C16.7213 8.08906 16.7159 8.08092 16.71 8.07312L16.7044 8.06687C16.6994 8.06179 16.6942 8.05699 16.6887 8.0525L16.6825 8.0475C16.6748 8.04188 16.6666 8.03687 16.6581 8.0325C16.6499 8.02866 16.6413 8.02573 16.6325 8.02375H16.5956C16.5863 8.02283 16.5768 8.02283 16.5675 8.02375C16.5584 8.02589 16.5496 8.02903 16.5412 8.03312L16.5331 8.0375L16.5144 8.05062L16.5075 8.05687C16.499 8.06453 16.4915 8.07313 16.485 8.0825L15.36 9.55937L14.5387 10.6356L13.9231 11.4375L9.94124 16.6594C9.93082 16.6753 9.92162 16.692 9.91374 16.7094C9.90376 16.7311 9.89641 16.754 9.89186 16.7775C9.88649 16.804 9.88481 16.8311 9.88686 16.8581C9.88896 16.9037 9.90128 16.9482 9.92292 16.9883C9.94456 17.0285 9.97496 17.0632 10.0119 17.09C10.0227 17.0972 10.034 17.1036 10.0456 17.1094C10.0824 17.1272 10.1228 17.1364 10.1637 17.1362H14.015L12.1512 23.7875C12.1504 23.7992 12.1504 23.8108 12.1512 23.8225V23.8319C12.1518 23.8399 12.1531 23.8478 12.155 23.8556C12.1546 23.8585 12.1546 23.8615 12.155 23.8644C12.1575 23.8741 12.1611 23.8835 12.1656 23.8925C12.1706 23.9007 12.176 23.9087 12.1819 23.9162L12.1875 23.9225L12.2031 23.9375C12.2055 23.9388 12.2076 23.9405 12.2094 23.9425C12.217 23.9481 12.2251 23.9529 12.2337 23.9569C12.2421 23.9604 12.2506 23.9633 12.2594 23.9656H12.2675C12.2744 23.9662 12.2813 23.9662 12.2881 23.9656H12.2962C12.3057 23.9653 12.3151 23.964 12.3244 23.9619C12.3332 23.9595 12.3418 23.9561 12.35 23.9519L12.3581 23.9475L12.3769 23.9344L12.3837 23.9287C12.3922 23.9211 12.3997 23.9125 12.4062 23.9031L13.8637 22L14.9594 20.5625L17.2544 17.5556Z" fill="currentColor"/>
<path d="M19.9688 16.0581L19.94 16.0956L16.5319 20.5625H23.3944C23.7259 20.5625 24.0438 20.4308 24.2783 20.1964C24.5127 19.962 24.6444 19.644 24.6444 19.3125V12.6875C24.6444 12.356 24.5127 12.038 24.2783 11.8036C24.0438 11.5692 23.7259 11.4375 23.3944 11.4375H17.1281L16.5194 13.6081H18.7219C18.9966 13.6078 19.2662 13.6818 19.5023 13.8223C19.7383 13.9628 19.9319 14.1646 20.0625 14.4062C20.1983 14.6556 20.2642 14.9371 20.2532 15.2208C20.2422 15.5045 20.1547 15.78 20 16.0181L19.9688 16.0581ZM30 12.6669C29.7348 12.6669 29.4804 12.7722 29.2929 12.9598C29.1054 13.1473 29 13.4017 29 13.6669V18.3331C29 18.5983 29.1054 18.8527 29.2929 19.0402C29.4804 19.2278 29.7348 19.3331 30 19.3331C30.2652 19.3331 30.5196 19.2278 30.7071 19.0402C30.8946 18.8527 31 18.5983 31 18.3331V13.6669C31 13.4017 30.8946 13.1473 30.7071 12.9598C30.5196 12.7722 30.2652 12.6669 30 12.6669Z" fill="currentColor"/>
</svg>
