<svg width="32" height="33" viewBox="0 0 32 33" fill="none" xmlns="http://www.w3.org/2000/svg">
<path d="M7 4.74997C7.26522 4.74997 7.51957 4.85533 7.70711 5.04286C7.89464 5.2304 8 5.48475 8 5.74997V14.2768L22.5481 5.56934C22.8841 5.36495 23.2689 5.25456 23.6622 5.24972C24.0554 5.24488 24.4428 5.34577 24.7838 5.54184C25.5338 5.96684 26 6.79184 26 7.68747V25.8125C26 26.7106 25.5338 27.5331 24.7838 27.9581C24.4427 28.154 24.0554 28.2548 23.6621 28.2498C23.2688 28.2449 22.8841 28.1344 22.5481 27.93L8 19.2231V27.75C8 28.0152 7.89464 28.2695 7.70711 28.4571C7.51957 28.6446 7.26522 28.75 7 28.75C6.73478 28.75 6.48043 28.6446 6.29289 28.4571C6.10536 28.2695 6 28.0152 6 27.75V5.74997C6 5.48475 6.10536 5.2304 6.29289 5.04286C6.48043 4.85533 6.73478 4.74997 7 4.74997Z" fill="currentColor"/>
</svg>
