<svg width="32" height="32" viewBox="0 0 32 32" fill="none" xmlns="http://www.w3.org/2000/svg">
<path d="M8.31 27.7501C7.92626 27.7494 7.54932 27.6488 7.21625 27.4582C6.46625 27.0332 6 26.2082 6 25.3126V7.18758C6 6.28945 6.46625 5.46695 7.21625 5.04195C7.55725 4.84598 7.94464 4.7452 8.33791 4.75014C8.73118 4.75509 9.11591 4.86559 9.45188 5.07008L24.9425 14.3426C25.2653 14.545 25.5315 14.8261 25.716 15.1595C25.9004 15.493 25.9972 15.8678 25.9972 16.2488C25.9972 16.6299 25.9004 17.0047 25.716 17.3381C25.5315 17.6715 25.2653 17.9526 24.9425 18.1551L9.44937 27.4301C9.10556 27.6379 8.71176 27.7485 8.31 27.7501Z" fill="currentColor"/>
</svg>
