<svg width="34" height="35" viewBox="0 0 34 35" fill="none" xmlns="http://www.w3.org/2000/svg">
<path d="M14 28.75H11C10.7348 28.75 10.4804 28.6446 10.2929 28.4571C10.1054 28.2695 10 28.0152 10 27.75V7.74997C10 7.48475 10.1054 7.2304 10.2929 7.04286C10.4804 6.85533 10.7348 6.74997 11 6.74997H14C14.2652 6.74997 14.5196 6.85533 14.7071 7.04286C14.8946 7.2304 15 7.48475 15 7.74997V27.75C15 28.0152 14.8946 28.2695 14.7071 28.4571C14.5196 28.6446 14.2652 28.75 14 28.75ZM23 28.75H20C19.7348 28.75 19.4804 28.6446 19.2929 28.4571C19.1054 28.2695 19 28.0152 19 27.75V7.74997C19 7.48475 19.1054 7.2304 19.2929 7.04286C19.4804 6.85533 19.7348 6.74997 20 6.74997H23C23.2652 6.74997 23.5196 6.85533 23.7071 7.04286C23.8946 7.2304 24 7.48475 24 7.74997V27.75C24 28.0152 23.8946 28.2695 23.7071 28.4571C23.5196 28.6446 23.2652 28.75 23 28.75Z" fill="currentColor"/>
</svg>
