<svg width="32" height="33" viewBox="0 0 32 33" fill="none" xmlns="http://www.w3.org/2000/svg">
<path d="M25 4.74997C24.7348 4.74997 24.4804 4.85533 24.2929 5.04286C24.1054 5.2304 24 5.48475 24 5.74997V14.2768L9.45187 5.56934C9.11585 5.36495 8.7311 5.25456 8.33782 5.24972C7.94455 5.24488 7.5572 5.34577 7.21625 5.54184C6.46625 5.96684 6 6.78934 6 7.68747V25.8125C6 26.7106 6.46625 27.5331 7.21625 27.9581C7.55727 28.154 7.94465 28.2548 8.33791 28.2498C8.73117 28.2449 9.11589 28.1344 9.45187 27.93L24 19.2231V27.75C24 28.0152 24.1054 28.2695 24.2929 28.4571C24.4804 28.6446 24.7348 28.75 25 28.75C25.2652 28.75 25.5196 28.6446 25.7071 28.4571C25.8946 28.2695 26 28.0152 26 27.75V5.74997C26 5.48475 25.8946 5.2304 25.7071 5.04286C25.5196 4.85533 25.2652 4.74997 25 4.74997Z" fill="currentColor"/>
</svg>
