<svg width="32" height="32" viewBox="0 0 32 32" fill="none" xmlns="http://www.w3.org/2000/svg">
<path d="M23.4244 19.2987L28.5938 22.9375C28.746 23.0052 28.9128 23.0338 29.0789 23.0206C29.245 23.0075 29.4051 22.953 29.5449 22.8623C29.6846 22.7715 29.7994 22.6472 29.8789 22.5008C29.9584 22.3543 30 22.1904 30 22.0237V9.97625C30 9.80963 29.9584 9.64565 29.8789 9.49921C29.7994 9.35277 29.6846 9.22851 29.5449 9.13773C29.4051 9.04694 29.245 8.99251 29.0789 8.97937C28.9128 8.96623 28.746 8.99481 28.5938 9.0625L23.4244 12.7012C23.2933 12.7935 23.1863 12.916 23.1125 13.0582C23.0386 13.2005 23 13.3584 23 13.5187V18.4812C23 18.6415 23.0386 18.7995 23.1125 18.9418C23.1863 19.084 23.2933 19.2065 23.4244 19.2987Z" stroke="currentColor" stroke-width="2" stroke-linecap="round" stroke-linejoin="round"/>
<path d="M16.75 24H5.25C4.38881 23.9975 3.56359 23.6543 2.95464 23.0454C2.34568 22.4364 2.00247 21.6112 2 20.75V11.25C2.00247 10.3888 2.34568 9.56359 2.95464 8.95464C3.56359 8.34568 4.38881 8.00247 5.25 8H16.78C17.6332 8.00264 18.4507 8.34273 19.054 8.94603C19.6573 9.54933 19.9974 10.3668 20 11.22V20.75C19.9975 21.6112 19.6543 22.4364 19.0454 23.0454C18.4364 23.6543 17.6112 23.9975 16.75 24Z" stroke="currentColor" stroke-width="2" stroke-miterlimit="10"/>
</svg>
