<svg width="32" height="32" viewBox="0 0 32 32" fill="currentColor" xmlns="http://www.w3.org/2000/svg">
<path d="M18.5 26.0119C18.1802 26.0117 17.8689 25.9089 17.6119 25.7187L17.5706 25.6869L11.8544 20.9994H7.5C7.10218 20.9994 6.72064 20.8413 6.43934 20.56C6.15804 20.2787 6 19.8972 6 19.4994V12.5C6 12.1022 6.15804 11.7206 6.43934 11.4393C6.72064 11.158 7.10218 11 7.5 11H11.8531L17.5694 6.3125L17.6106 6.28062C17.8341 6.11608 18.0988 6.01676 18.3754 5.9937C18.652 5.97065 18.9295 6.02477 19.1771 6.15004C19.4247 6.27532 19.6328 6.46683 19.778 6.70328C19.9233 6.93974 20.0002 7.21186 20 7.48937V24.5106C20 24.9084 19.842 25.29 19.5607 25.5713C19.2794 25.8526 18.8978 26.0106 18.5 26.0106V26.0119ZM24 21C23.8294 20.9999 23.6617 20.9562 23.5128 20.873C23.3639 20.7898 23.2388 20.67 23.1493 20.5248C23.0598 20.3796 23.0089 20.2139 23.0015 20.0435C22.9941 19.8731 23.0303 19.7037 23.1069 19.5512C23.7 18.37 24.0006 17.1762 24.0006 16C24.0006 14.79 23.7094 13.63 23.11 12.4544C22.9952 12.2188 22.9774 11.9476 23.0605 11.699C23.1436 11.4505 23.321 11.2445 23.5544 11.1254C23.7879 11.0063 24.0587 10.9836 24.3088 11.0622C24.5588 11.1408 24.7679 11.3144 24.8913 11.5456C25.6375 13.01 26 14.4669 26 16C26 17.4894 25.625 18.9862 24.8937 20.4487C24.8105 20.6145 24.6829 20.7538 24.5251 20.8511C24.3672 20.9485 24.1854 21 24 21Z" />
</svg>
