<svg width="32" height="32" viewBox="0 0 32 32" fill="currentColor" xmlns="http://www.w3.org/2000/svg">
<path d="M21.5 26C21.1802 25.9998 20.8689 25.8971 20.6119 25.7069C20.5975 25.6969 20.5844 25.6862 20.5706 25.675L14.8544 20.9937H10.5C10.1022 20.9937 9.72064 20.8357 9.43934 20.5544C9.15804 20.2731 9 19.8916 9 19.4937V12.5044C9 12.1066 9.15804 11.725 9.43934 11.4437C9.72064 11.1624 10.1022 11.0044 10.5 11.0044H14.8531L20.5694 6.32313C20.5831 6.31188 20.5962 6.30125 20.6106 6.29125C20.8341 6.12671 21.0988 6.02738 21.3754 6.00433C21.652 5.98128 21.9295 6.0354 22.1771 6.16067C22.4247 6.28594 22.6328 6.47746 22.778 6.71391C22.9233 6.95037 23.0002 7.22248 23 7.5V24.5C23 24.8978 22.842 25.2794 22.5607 25.5607C22.2794 25.842 21.8978 26 21.5 26Z" />
</svg>
