<svg width="32" height="32" viewBox="0 0 32 32" fill="currentColor" xmlns="http://www.w3.org/2000/svg">
<path d="M14.5 26C14.1805 26 13.8694 25.8975 13.6125 25.7075C13.5982 25.6976 13.5844 25.687 13.5712 25.6756L7.86 21H3.5C3.10218 21 2.72064 20.842 2.43934 20.5607C2.15804 20.2794 2 19.8978 2 19.5V12.5C2 12.1022 2.15804 11.7206 2.43934 11.4393C2.72064 11.158 3.10218 11 3.5 11H7.85938L13.57 6.32437C13.5832 6.31304 13.597 6.3024 13.6112 6.2925C13.8346 6.1282 14.0992 6.02903 14.3755 6.00603C14.6519 5.98302 14.9292 6.03707 15.1767 6.16217C15.4242 6.28727 15.6321 6.47853 15.7775 6.71469C15.9228 6.95086 15.9998 7.22269 16 7.5V24.5C16 24.8978 15.842 25.2794 15.5607 25.5607C15.2794 25.842 14.8978 26 14.5 26ZM20 21C19.8294 21 19.6616 20.9563 19.5126 20.873C19.3636 20.7898 19.2384 20.6699 19.1489 20.5246C19.0594 20.3793 19.0085 20.2136 19.0011 20.0431C18.9938 19.8726 19.0302 19.7031 19.1069 19.5506C19.7 18.3712 20.0006 17.1756 20.0006 16C20.0006 14.7887 19.7094 13.6287 19.11 12.4544C18.9952 12.2188 18.9774 11.9476 19.0605 11.699C19.1436 11.4505 19.321 11.2445 19.5544 11.1254C19.7879 11.0063 20.0587 10.9836 20.3088 11.0622C20.5588 11.1408 20.7679 11.3144 20.8913 11.5456C21.6369 13.0075 22 14.465 22 16C22 17.4912 21.625 18.9881 20.8937 20.4494C20.8104 20.615 20.6828 20.7542 20.5249 20.8514C20.3671 20.9486 20.1854 21.0001 20 21Z" />
<path d="M23 24C22.8244 24 22.652 23.9539 22.4999 23.8661C22.3479 23.7784 22.2216 23.6521 22.1338 23.5001C22.046 23.3481 21.9998 23.1756 21.9998 23.0001C21.9998 22.8245 22.046 22.652 22.1338 22.5C23.3156 20.4431 24 18.7194 24 16C24 13.2394 23.3169 11.5275 22.1362 9.50375C22.0068 9.27489 21.9726 9.00425 22.0412 8.75041C22.1098 8.49657 22.2757 8.27997 22.5028 8.1475C22.73 8.01503 23.0001 7.97735 23.2548 8.04262C23.5096 8.1079 23.7283 8.27087 23.8638 8.49625C25.1825 10.7569 26 12.8006 26 16C26 19.1519 25.1837 21.2056 23.8669 23.5C23.779 23.6521 23.6527 23.7785 23.5005 23.8662C23.3483 23.954 23.1757 24.0001 23 24Z" />
<path d="M26 27C25.8199 26.9999 25.6432 26.9511 25.4886 26.8589C25.3339 26.7666 25.207 26.6344 25.1213 26.476C25.0356 26.3176 24.9942 26.139 25.0016 25.9591C25.0089 25.7792 25.0648 25.6046 25.1631 25.4537C26.8656 22.8419 28 20.235 28 16C28 11.8437 26.8638 9.21125 25.1569 6.53812C25.0862 6.42732 25.0381 6.30368 25.0152 6.17427C24.9923 6.04486 24.9951 5.91221 25.0235 5.78389C25.0519 5.65557 25.1052 5.5341 25.1806 5.42641C25.2559 5.31872 25.3517 5.22692 25.4625 5.15625C25.5733 5.08558 25.6969 5.03743 25.8264 5.01454C25.9558 4.99166 26.0884 4.99449 26.2167 5.02287C26.3451 5.05125 26.4665 5.10462 26.5742 5.17995C26.6819 5.25527 26.7737 5.35107 26.8444 5.46187C28.7381 8.43062 30 11.3587 30 16C30 20.0469 29.0838 23.1019 26.8375 26.5462C26.7466 26.6856 26.6225 26.8 26.4762 26.8792C26.33 26.9585 26.1663 27 26 27Z" />
</svg>
