<svg width="32" height="32" viewBox="0 0 32 32" fill="currentColor" xmlns="http://www.w3.org/2000/svg">
<path d="M16.5 26.0119C16.1802 26.0117 15.8689 25.9089 15.6119 25.7187L15.5706 25.6869L9.85437 20.9994H5.5C5.10218 20.9994 4.72064 20.8413 4.43934 20.56C4.15804 20.2787 4 19.8972 4 19.4994V12.5C4 12.1022 4.15804 11.7206 4.43934 11.4393C4.72064 11.158 5.10218 11 5.5 11H9.85312L15.5694 6.3125L15.6106 6.28062C15.8341 6.11608 16.0988 6.01676 16.3754 5.9937C16.652 5.97065 16.9295 6.02477 17.1771 6.15004C17.4247 6.27532 17.6328 6.46683 17.778 6.70328C17.9233 6.93974 18.0002 7.21186 18 7.48937V24.5106C18 24.9084 17.842 25.29 17.5607 25.5713C17.2794 25.8526 16.8978 26.0106 16.5 26.0106V26.0119ZM22 21C21.8294 20.9999 21.6617 20.9562 21.5128 20.873C21.3639 20.7898 21.2388 20.67 21.1493 20.5248C21.0598 20.3796 21.0089 20.2139 21.0015 20.0435C20.9941 19.8731 21.0303 19.7037 21.1069 19.5512C21.7 18.37 22.0006 17.1762 22.0006 16C22.0006 14.79 21.7094 13.63 21.11 12.4544C20.9952 12.2188 20.9774 11.9476 21.0605 11.699C21.1436 11.4505 21.321 11.2445 21.5544 11.1254C21.7879 11.0063 22.0587 10.9836 22.3088 11.0622C22.5588 11.1408 22.7679 11.3144 22.8913 11.5456C23.6375 13.01 24 14.4669 24 16C24 17.4894 23.625 18.9862 22.8937 20.4487C22.8105 20.6145 22.6829 20.7538 22.5251 20.8511C22.3672 20.9485 22.1854 21 22 21Z" />
<path d="M25 24C24.8244 24.0002 24.6518 23.9541 24.4997 23.8663C24.3476 23.7786 24.2212 23.6524 24.1333 23.5004C24.0455 23.3483 23.9992 23.1758 23.9991 23.0002C23.9991 22.8246 24.0453 22.6521 24.1331 22.5C25.3125 20.4406 26 18.7156 26 16C26 13.2425 25.3163 11.53 24.1356 9.50313C24.0138 9.27459 23.9853 9.00768 24.0563 8.7586C24.1273 8.50952 24.2921 8.29769 24.5161 8.16771C24.7402 8.03772 25.0059 7.99972 25.2573 8.0617C25.5088 8.12368 25.7264 8.2808 25.8644 8.5C27.1825 10.76 28 12.805 28 16C28 19.1475 27.1838 21.2025 25.8675 23.5C25.7796 23.6522 25.6531 23.7786 25.5008 23.8664C25.3485 23.9542 25.1758 24.0003 25 24Z" />
</svg>
