<svg width="32" height="32" viewBox="0 0 32 32" fill="currentColor" xmlns="http://www.w3.org/2000/svg">
<path d="M26 27L4 5" stroke="black" stroke-miterlimit="10" stroke-linecap="round"/>
<path d="M15.2081 6.17875C14.9586 6.04415 14.6759 5.98337 14.3932 6.00352C14.1104 6.02366 13.8392 6.12389 13.6112 6.2925L13.57 6.32437L11.7875 7.78375C11.7334 7.82799 11.6892 7.88307 11.6577 7.94544C11.6263 8.00782 11.6082 8.07609 11.6047 8.14588C11.6012 8.21566 11.6124 8.28539 11.6376 8.35059C11.6627 8.41578 11.7012 8.47498 11.7506 8.52437L15.1462 11.92C15.2162 11.99 15.3053 12.0377 15.4023 12.057C15.4994 12.0763 15.6 12.0664 15.6914 12.0286C15.7828 11.9907 15.8609 11.9265 15.9159 11.8442C15.9708 11.7619 16.0001 11.6652 16 11.5662V7.53562C16.0028 7.25903 15.9307 6.98684 15.7913 6.74794C15.6518 6.50904 15.4503 6.31235 15.2081 6.17875ZM15.7081 20.9556L6.04313 11.2931C5.85568 11.1056 5.60142 11.0001 5.33625 11H3.5C3.10218 11 2.72064 11.158 2.43934 11.4393C2.15804 11.7206 2 12.1022 2 12.5V19.5C2 19.8978 2.15804 20.2794 2.43934 20.5607C2.72064 20.842 3.10218 21 3.5 21H7.86L13.61 25.7069C13.8408 25.8782 14.1161 25.9792 14.4029 25.998C14.6897 26.0167 14.9758 25.9523 15.2269 25.8125C15.4641 25.6773 15.6608 25.4811 15.7968 25.2443C15.9327 25.0075 16.0029 24.7387 16 24.4656V21.6619C16 21.3971 15.8951 21.1431 15.7081 20.9556ZM22 16C22 14.465 21.6369 13.0081 20.8906 11.5456C20.8315 11.4277 20.7495 11.3227 20.6496 11.2366C20.5497 11.1506 20.4337 11.0851 20.3084 11.044C20.1831 11.0029 20.0508 10.987 19.9193 10.9973C19.7879 11.0075 19.6597 11.0436 19.5422 11.1036C19.4247 11.1636 19.3203 11.2462 19.2349 11.3467C19.1495 11.4472 19.0848 11.5636 19.0446 11.6892C19.0043 11.8148 18.9893 11.9472 19.0005 12.0786C19.0116 12.21 19.0486 12.3379 19.1094 12.455C19.7088 13.6287 20 14.7887 20 16C20 16.1667 19.9935 16.336 19.9806 16.5081C19.9753 16.5798 19.9855 16.6518 20.0105 16.7193C20.0355 16.7867 20.0748 16.8479 20.1256 16.8987L21.0231 17.7962C21.088 17.8612 21.1694 17.9071 21.2586 17.9288C21.3477 17.9506 21.4412 17.9474 21.5286 17.9196C21.6161 17.8917 21.6942 17.8404 21.7544 17.7711C21.8146 17.7019 21.8546 17.6174 21.87 17.5269C21.9561 17.0225 21.9996 16.5117 22 16ZM26 16C26 12.8012 25.1825 10.7569 23.8638 8.49625C23.7283 8.27086 23.5096 8.10789 23.2548 8.04262C23.0001 7.97735 22.73 8.01503 22.5028 8.1475C22.2757 8.27997 22.1098 8.49657 22.0412 8.75041C21.9726 9.00425 22.0068 9.27489 22.1362 9.50375C23.3169 11.5275 24 13.2394 24 16C24 17.4894 23.7944 18.68 23.4144 19.7906C23.3838 19.8792 23.3788 19.9745 23.3998 20.0658C23.4208 20.157 23.467 20.2406 23.5331 20.3069L24.3125 21.0875C24.3714 21.1465 24.4442 21.1898 24.5241 21.2135C24.604 21.2372 24.6886 21.2406 24.7702 21.2232C24.8517 21.2059 24.9277 21.1684 24.9911 21.1143C25.0544 21.0601 25.1033 20.991 25.1331 20.9131C25.6875 19.485 26 17.9537 26 16Z" />
<path d="M30 16C30 11.3594 28.7381 8.43063 26.8431 5.46188C26.7004 5.2381 26.4746 5.08018 26.2155 5.02287C25.9563 4.96555 25.685 5.01353 25.4613 5.15625C25.2375 5.29897 25.0796 5.52474 25.0222 5.78389C24.9649 6.04304 25.0129 6.31435 25.1556 6.53813C26.8637 9.21125 28 11.8438 28 16C28 18.8869 27.4731 21.0169 26.5981 22.9081C26.5553 23.0008 26.5418 23.1044 26.5596 23.205C26.5773 23.3055 26.6255 23.3982 26.6975 23.4706L27.4425 24.2156C27.4988 24.2729 27.5681 24.3157 27.6445 24.3405C27.7209 24.3653 27.8021 24.3714 27.8814 24.3581C27.9606 24.3449 28.0354 24.3127 28.0996 24.2644C28.1638 24.2161 28.2154 24.1531 28.25 24.0806C29.475 21.5563 30 19.0625 30 16Z" />
</svg>
