<svg width="32" height="32" viewBox="0 0 32 32" fill="currentColor" xmlns="http://www.w3.org/2000/svg">
<g clip-path="url(#clip0_15_7)">
<path fill-rule="evenodd" clip-rule="evenodd" d="M20.7059 22.1103C20.7141 22.1216 20.7003 22.1021 20.7059 22.1103C20.6848 22.0814 20.6632 22.053 20.641 22.0249C20.5694 21.9348 20.494 21.8479 20.4149 21.7643C20.2204 21.5579 19.9343 21.2932 19.548 21.0315C18.7679 20.5029 17.5975 20 16 20C14.4025 20 13.2321 20.5029 12.452 21.0315C12.0657 21.2932 11.7796 21.5579 11.5851 21.7643C11.506 21.8479 11.4306 21.9348 11.359 22.0249C11.3321 22.0589 11.3755 22.0024 11.359 22.0249L11.2599 22.1588C11.1282 22.3537 11.0694 22.5887 11.0938 22.8226C11.1182 23.0565 11.2242 23.2743 11.3933 23.4377L15.3049 27.219C15.6926 27.5937 16.3074 27.5937 16.695 27.219L20.6067 23.4377C20.7758 23.2743 20.8818 23.0565 20.9063 22.8226C20.9307 22.5887 20.8719 22.3537 20.7402 22.1588L20.7059 22.1103Z" />
<path fill-rule="evenodd" clip-rule="evenodd" d="M26.3179 16.8664C26.3094 16.8527 26.2806 16.806 26.2671 16.7851C26.2306 16.7293 26.1929 16.6743 26.154 16.6202C26.057 16.485 25.9157 16.3017 25.7252 16.0867C25.344 15.6567 24.7651 15.0991 23.9491 14.5469C22.3072 13.4356 19.7479 12.375 16 12.375C12.2521 12.375 9.69281 13.4356 8.05087 14.5469C7.23494 15.0991 6.656 15.6567 6.27481 16.0867C6.08425 16.3017 5.94294 16.485 5.846 16.6202C5.80706 16.6743 5.76934 16.7293 5.73287 16.7851C5.71937 16.806 5.7084 16.8233 5.69994 16.8369L5.68213 16.8664C5.56763 17.0602 5.52188 17.2869 5.55225 17.51C5.58262 17.733 5.68735 17.9393 5.8495 18.0954L8.05637 20.2204C8.15311 20.3135 8.26761 20.3862 8.39304 20.4342C8.51848 20.4821 8.65229 20.5043 8.78649 20.4994C8.92068 20.4945 9.05252 20.4626 9.17413 20.4056C9.29574 20.3487 9.40463 20.2678 9.49431 20.1679L9.5065 20.1548C9.51944 20.1411 9.54181 20.1179 9.57362 20.0863C9.67098 19.9904 9.77169 19.8979 9.87556 19.8091C10.1507 19.5725 10.5689 19.2499 11.1228 18.9252C12.2286 18.2772 13.8683 17.625 16 17.625C18.1317 17.625 19.7714 18.2772 20.8773 18.9252C21.4311 19.2499 21.8493 19.5725 22.1244 19.8091C22.2283 19.8979 22.329 19.9904 22.4264 20.0863C22.4533 20.113 22.4798 20.1402 22.5057 20.1679L22.5054 20.1675L22.5046 20.1666M22.5046 20.1666L22.5062 20.1684C22.5959 20.2682 22.7048 20.349 22.8264 20.4058C22.948 20.4627 23.0797 20.4945 23.2139 20.4994C23.348 20.5042 23.4817 20.482 23.6071 20.4341C23.7325 20.3862 23.8469 20.3135 23.9436 20.2204L26.1505 18.0954C26.3126 17.9393 26.4174 17.733 26.4478 17.51C26.4781 17.2869 26.4324 17.0602 26.3179 16.8664" />
<path d="M31.7484 11.329C31.7698 11.3577 31.8222 11.4308 31.8222 11.4308C31.9571 11.6257 32.0184 11.8621 31.9952 12.098C31.972 12.3339 31.8657 12.5539 31.6954 12.7187L29.4023 14.9374C29.3038 15.0327 29.1869 15.1067 29.0586 15.1549C28.9304 15.203 28.7937 15.2244 28.6568 15.2175C28.52 15.2107 28.3861 15.1758 28.2633 15.115C28.1406 15.0543 28.0316 14.9689 27.9432 14.8643L27.943 14.8641L27.9377 14.8579C27.9319 14.8513 27.9219 14.8399 27.9076 14.8237C27.8625 14.7734 27.8168 14.7239 27.7703 14.675C27.6447 14.5428 27.4518 14.3482 27.1934 14.1119C26.6763 13.6388 25.9003 13.0016 24.8811 12.3631C22.8437 11.0865 19.8488 9.8125 16 9.8125C12.1512 9.8125 9.15631 11.0865 7.11888 12.3631C6.09969 13.0016 5.32375 13.6388 4.80656 14.1119C4.54825 14.3482 4.35531 14.5428 4.22975 14.675C4.18325 14.7239 4.13747 14.7734 4.09244 14.8237C4.07806 14.8399 4.06802 14.8513 4.06231 14.8579L4.05937 14.8613L4.0575 14.8634L4.05725 14.8638L4.057 14.8641L4.05675 14.8644C3.96832 14.969 3.85935 15.0543 3.73659 15.115C3.61383 15.1758 3.4799 15.2107 3.3431 15.2175C3.20631 15.2244 3.06956 15.203 2.94135 15.1549C2.81314 15.1067 2.69619 15.0327 2.59775 14.9374L0.304625 12.7187C0.13428 12.5539 0.0280132 12.3339 0.00477546 12.098C-0.0184623 11.8622 0.04284 11.6257 0.17775 11.4308L0.178437 11.4298L0.17925 11.4288L0.181125 11.4261L0.186062 11.419L0.201062 11.3979C0.213354 11.3807 0.230208 11.3578 0.251625 11.329C0.2945 11.2715 0.355812 11.1916 0.435937 11.0924C0.596125 10.894 0.831875 10.6183 1.14637 10.2913C1.77494 9.6375 2.72044 8.77619 4.00781 7.91794C6.58981 6.19662 10.53 4.5 16 4.5C21.47 4.5 25.4102 6.19662 27.9922 7.91794C29.2796 8.77619 30.2251 9.6375 30.8536 10.2913C31.1681 10.6183 31.4039 10.894 31.5641 11.0924C31.627 11.1701 31.6885 11.249 31.7484 11.329Z" />
</g>
<defs>
<clipPath id="clip0_15_7">
<rect width="32" height="32" fill="white"/>
</clipPath>
</defs>
</svg>
